<mxfile host="app.diagrams.net" modified="2024-07-10T06:11:28.094Z" agent="Mozilla/5.0 (Macintosh; Intel Mac OS X 10_15_7) AppleWebKit/537.36 (KHTML, like Gecko) Chrome/126.0.0.0 Safari/537.36" etag="bub-TgwzVBNep3QHVFum" version="24.6.4" type="device">
  <diagram name="페이지-1" id="KOh19ug340gx2M4w_G4C">
    <mxGraphModel dx="954" dy="615" grid="1" gridSize="10" guides="1" tooltips="1" connect="1" arrows="1" fold="1" page="1" pageScale="1" pageWidth="827" pageHeight="1169" math="0" shadow="0">
      <root>
        <mxCell id="0" />
        <mxCell id="1" parent="0" />
        <mxCell id="HyCuDbk5J3wFjORHdMJ6-13" value="" style="edgeStyle=orthogonalEdgeStyle;rounded=0;orthogonalLoop=1;jettySize=auto;html=1;" parent="1" source="HyCuDbk5J3wFjORHdMJ6-1" target="HyCuDbk5J3wFjORHdMJ6-12" edge="1">
          <mxGeometry relative="1" as="geometry" />
        </mxCell>
        <mxCell id="HyCuDbk5J3wFjORHdMJ6-1" value="시작" style="ellipse;whiteSpace=wrap;html=1;" parent="1" vertex="1">
          <mxGeometry x="354" y="20" width="120" height="80" as="geometry" />
        </mxCell>
        <mxCell id="YJoZYMgmiX2J_byv7jkj-2" value="" style="edgeStyle=orthogonalEdgeStyle;rounded=0;orthogonalLoop=1;jettySize=auto;html=1;" edge="1" parent="1" source="HyCuDbk5J3wFjORHdMJ6-12" target="YJoZYMgmiX2J_byv7jkj-1">
          <mxGeometry relative="1" as="geometry" />
        </mxCell>
        <mxCell id="HyCuDbk5J3wFjORHdMJ6-12" value="숫자 1~45를 랜덤하게 생성" style="whiteSpace=wrap;html=1;" parent="1" vertex="1">
          <mxGeometry x="271" y="180" width="286" height="90" as="geometry" />
        </mxCell>
        <mxCell id="HyCuDbk5J3wFjORHdMJ6-21" value="" style="edgeStyle=orthogonalEdgeStyle;rounded=0;orthogonalLoop=1;jettySize=auto;html=1;" parent="1" target="HyCuDbk5J3wFjORHdMJ6-20" edge="1">
          <mxGeometry relative="1" as="geometry">
            <mxPoint x="414" y="420" as="sourcePoint" />
          </mxGeometry>
        </mxCell>
        <mxCell id="HyCuDbk5J3wFjORHdMJ6-23" value="" style="edgeStyle=orthogonalEdgeStyle;rounded=0;orthogonalLoop=1;jettySize=auto;html=1;" parent="1" source="HyCuDbk5J3wFjORHdMJ6-20" target="HyCuDbk5J3wFjORHdMJ6-22" edge="1">
          <mxGeometry relative="1" as="geometry" />
        </mxCell>
        <mxCell id="HyCuDbk5J3wFjORHdMJ6-27" style="edgeStyle=orthogonalEdgeStyle;rounded=0;orthogonalLoop=1;jettySize=auto;html=1;exitX=1;exitY=0.5;exitDx=0;exitDy=0;entryX=1;entryY=0.5;entryDx=0;entryDy=0;" parent="1" source="HyCuDbk5J3wFjORHdMJ6-20" target="HyCuDbk5J3wFjORHdMJ6-26" edge="1">
          <mxGeometry relative="1" as="geometry">
            <mxPoint x="680" y="1140" as="targetPoint" />
            <Array as="points">
              <mxPoint x="650" y="645" />
              <mxPoint x="650" y="1085" />
            </Array>
          </mxGeometry>
        </mxCell>
        <mxCell id="HyCuDbk5J3wFjORHdMJ6-20" value="Set 컬렉션 내의 멤버 수가 6보다 큰가?" style="rhombus;whiteSpace=wrap;html=1;" parent="1" vertex="1">
          <mxGeometry x="264" y="560" width="300" height="170" as="geometry" />
        </mxCell>
        <mxCell id="HyCuDbk5J3wFjORHdMJ6-25" style="edgeStyle=orthogonalEdgeStyle;rounded=0;orthogonalLoop=1;jettySize=auto;html=1;exitX=0;exitY=0.5;exitDx=0;exitDy=0;" parent="1" source="HyCuDbk5J3wFjORHdMJ6-22" edge="1">
          <mxGeometry relative="1" as="geometry">
            <mxPoint x="414" y="510" as="targetPoint" />
            <Array as="points">
              <mxPoint x="190" y="890" />
              <mxPoint x="190" y="510" />
            </Array>
          </mxGeometry>
        </mxCell>
        <mxCell id="HyCuDbk5J3wFjORHdMJ6-22" value="Set 컬렉션의 첫번째 멤버를 제거한다." style="whiteSpace=wrap;html=1;" parent="1" vertex="1">
          <mxGeometry x="292" y="850" width="244" height="80" as="geometry" />
        </mxCell>
        <mxCell id="HyCuDbk5J3wFjORHdMJ6-24" value="Yes" style="text;strokeColor=none;fillColor=none;html=1;fontSize=24;fontStyle=1;verticalAlign=middle;align=center;" parent="1" vertex="1">
          <mxGeometry x="320" y="730" width="100" height="40" as="geometry" />
        </mxCell>
        <mxCell id="HyCuDbk5J3wFjORHdMJ6-32" value="" style="edgeStyle=orthogonalEdgeStyle;rounded=0;orthogonalLoop=1;jettySize=auto;html=1;" parent="1" source="HyCuDbk5J3wFjORHdMJ6-26" edge="1">
          <mxGeometry relative="1" as="geometry">
            <mxPoint x="414" y="1230" as="targetPoint" />
          </mxGeometry>
        </mxCell>
        <mxCell id="HyCuDbk5J3wFjORHdMJ6-26" value="Set 컬렉션을 print 한다." style="rounded=0;whiteSpace=wrap;html=1;" parent="1" vertex="1">
          <mxGeometry x="299" y="1030" width="230" height="110" as="geometry" />
        </mxCell>
        <mxCell id="HyCuDbk5J3wFjORHdMJ6-28" value="No" style="text;strokeColor=none;fillColor=none;html=1;fontSize=24;fontStyle=1;verticalAlign=middle;align=center;" parent="1" vertex="1">
          <mxGeometry x="541" y="600" width="100" height="40" as="geometry" />
        </mxCell>
        <mxCell id="HyCuDbk5J3wFjORHdMJ6-31" value="끝" style="ellipse;whiteSpace=wrap;html=1;rounded=0;" parent="1" vertex="1">
          <mxGeometry x="331" y="1230" width="166" height="105" as="geometry" />
        </mxCell>
        <mxCell id="YJoZYMgmiX2J_byv7jkj-1" value="랜덤하게 생성된 숫자를 Set 컬렉션에 저장" style="whiteSpace=wrap;html=1;" vertex="1" parent="1">
          <mxGeometry x="287" y="340" width="254" height="105" as="geometry" />
        </mxCell>
      </root>
    </mxGraphModel>
  </diagram>
</mxfile>
